<svg id="arte" xmlns="http://www.w3.org/2000/svg" viewBox="0 0 208.19 208.19"><defs><style>.cls-1{fill:#3d4b66;}</style></defs><title>ISO-COLOR</title><path class="cls-1" d="M155,58.8a23.49,23.49,0,1,0,23.54,23.54A23.57,23.57,0,0,0,155,58.8Zm0,37.38a13.84,13.84,0,1,1,13.83-13.84A13.86,13.86,0,0,1,155,96.18Z" transform="translate(-5.89 -5.91)"/><path class="cls-1" d="M154.31,51.37A23,23,0,0,1,175,58.66a5.12,5.12,0,1,0,7.62-6.85c-10.55-11.76-24.28-11.33-29.69-10.6a5.13,5.13,0,0,0,1.37,10.16Z" transform="translate(-5.89 -5.91)"/><path class="cls-1" d="M155.67,26.75c3.84.84,11.5,3.42,19.62,11.29a5.1,5.1,0,0,0,3.57,1.45,4.07,4.07,0,0,0,.49-.05,5.06,5.06,0,0,0,3.19-1.51,5,5,0,0,0,1-1.51,5.12,5.12,0,0,0-1.11-5.73c-10-9.65-19.67-12.88-24.57-14a5.12,5.12,0,0,0-6,3.59c0,.11-.08.21-.1.32A5.12,5.12,0,0,0,155.67,26.75Z" transform="translate(-5.89 -5.91)"/><path class="cls-1" d="M182.56,72.11a45.54,45.54,0,0,1,2,8.73,5.12,5.12,0,0,0,5.07,4.43,5.78,5.78,0,0,0,.71,0,4.69,4.69,0,0,0,.84-.21,5,5,0,0,0,1.19-.55A5.05,5.05,0,0,0,194,82.72a5.17,5.17,0,0,0,.71-2.29,4.74,4.74,0,0,0,0-1,55.44,55.44,0,0,0-2.5-10.82,5.13,5.13,0,0,0-9.64,3.49Z" transform="translate(-5.89 -5.91)"/><path class="cls-1" d="M196.49,61.94a5.13,5.13,0,0,0,.27,3.91,52.21,52.21,0,0,1,4,12.07c.31,1.44.55,2.79.73,4,0,.08,0,.17,0,.24a5.1,5.1,0,0,0,4.54,4.33,4.8,4.8,0,0,0,.52,0,6.3,6.3,0,0,0,.75,0,5.12,5.12,0,0,0,2.83-1.41,5.81,5.81,0,0,0,.64-.77,5.11,5.11,0,0,0,.86-3.64c-.13-.84-.28-1.76-.46-2.72a64,64,0,0,0-5.31-16.63,5.09,5.09,0,0,0-5.52-2.75,5,5,0,0,0-1.34.43A5.13,5.13,0,0,0,196.49,61.94Z" transform="translate(-5.89 -5.91)"/><path class="cls-1" d="M192.59,51.86a4.91,4.91,0,1,0-4.92-4.92A4.89,4.89,0,0,0,192.59,51.86Z" transform="translate(-5.89 -5.91)"/><path class="cls-1" d="M213.15,104.16c-.16-.51-.35-1-.39-1.17a10,10,0,0,0-1.69-3,34.26,34.26,0,0,0-4.6-4.44,23.63,23.63,0,0,0-8.11-3.94h0l-.62-.14c-.4-.07-.8-.14-1.18-.17h-.06a10.94,10.94,0,0,0-2.58.1A11.19,11.19,0,0,0,189.86,93,15.7,15.7,0,0,0,186,96.53c-.19.25-.38.5-.53.72-1.13,1.61-2.77,3.67-4.1,5.3-.5.61-.94,1.15-1.31,1.58-.79.81-1.61,1.61-2.48,2.36-4.74,4.1-17.5,13-33.75,7.63-.14-.05-11.28-3.91-17.39-14a26.45,26.45,0,0,1-3.79-11.23c-1.8-17.71,5.38-26.7,13.69-37.11q1.42-1.77,2.81-3.55c4-5.2,5.94-9.76,6.67-13.53a19.13,19.13,0,0,0,.13-7A14.75,14.75,0,0,0,144,22.56l-.12-.18c-.06-.09-.1-.17-.17-.26l-.18-.25c-.13-.17-.26-.35-.4-.51l-.2-.24c-.12-.14-.24-.29-.37-.42l0,0a12.36,12.36,0,0,0-2.19-1.83,8.79,8.79,0,0,1-2-3.67c-.31-1.11-.44-2.17-.68-3.14a5.24,5.24,0,0,0-3.55-3.27A104,104,0,0,0,5.89,110c0,.28,0,2.32.11,4.48a103.29,103.29,0,0,0,12.33,44.79c.19.37,3.13,5.43,3.31,5.72a104.06,104.06,0,0,0,192.42-54.41,1.79,1.79,0,0,0,0-.24A19.54,19.54,0,0,0,213.15,104.16Zm-110-63.7c3.69-12.5,4.52-19.65,2.1-24.18,1.56-.08,3.12-.12,4.7-.12a94.2,94.2,0,0,1,17.89,1.73c-4.83,2.1-10.18,7.07-17,15.4a107.28,107.28,0,0,0-10.25,15.07C101.66,45.35,102.52,42.71,103.18,40.46ZM75.89,22.6c-1.07,2-2,4-2.86,5.88a171,171,0,0,0-7.69,24.34c0-.5.09-1,.13-1.48,1.06-12,1.69-19.27-2.33-22.6A93.52,93.52,0,0,1,75.89,22.6ZM35.09,53.53c-1.81,7.89-3,18.82-2.25,35.56.12,2.61.47,6,.89,9.68a67.18,67.18,0,0,0-2.22-7.93c-1.45-3.89-7.1-6.91-10.68-6.61-.38,0-.74.09-1.11.14A93.67,93.67,0,0,1,35.09,53.53ZM32.3,158c8.34-8.34,30.57-23.76,72.43-9.69,2.56.86,5,1.63,7.5,2.34-22.23,6.05-38.12,9.57-50.55,10.71-8.7.8-15.71.43-22-1A50.62,50.62,0,0,1,32.3,158ZM110,203.85a93.31,93.31,0,0,1-38.89-8.47c2.35-.83,5.07-1.75,8.09-2.72a237.67,237.67,0,0,1,38-9.1c15.87-2.25,28.32-3.25,45.65,2.92l1,.33A93.29,93.29,0,0,1,110,203.85Zm63-24.39c-23.08-9.81-38.45-8.71-57.27-6.05-25.94,3.68-50.89,13.21-56.54,15.46a94.66,94.66,0,0,1-20.87-18.34,70.08,70.08,0,0,0,15,1.55c13.25,0,29.19-3,50.94-8.69,4.15-1.07,8.49-2.24,13.09-3.5a100.12,100.12,0,0,1,25.49-3.69c2.14.12,4.2.16,6.21.15a80.32,80.32,0,0,1,35.6,10.41h0A101.53,101.53,0,0,1,173,179.46Zm17.4-21.18a85.91,85.91,0,0,0-14-6.62,63.59,63.59,0,0,0,23.67-15.43A93.47,93.47,0,0,1,190.42,158.28Zm13.18-45.42h0c-4,9.24-18.19,33.67-56.69,33.13l-1.68-.06c-10.55-.34-22.85-2.5-37.22-7.33C61.35,123,35.76,140,25.31,150.45a93.32,93.32,0,0,1-9.11-37.78s-.05-1,0-1.64c.17-6.73.8-11.42,2.16-15,.06-.14.12-.29.19-.42h0a.28.28,0,0,1,0-.06l0,0a2.28,2.28,0,0,1,1.86-1.15,2.2,2.2,0,0,1,1.31.19s.2.16.24.21a1,1,0,0,1,.14.23,1.87,1.87,0,0,1,.07.22.14.14,0,0,1,0,.06c1,3.11,2,7.89,3,12.55.28,1.33.54,2.57.79,3.72,1.84,8.5,3,12.19,5.28,14.22,1.48,1.3,3.82,3.37,6.8,3.37a6.51,6.51,0,0,0,1.42-.16c3.5-.78,4.9-4,5.43-5.27,1.09-2.52,1.06-6.69.3-14.34-.24-2.48-.56-5.32-.94-8.59-.55-4.72-1.06-9.17-1.2-12.17C41.83,61.8,45.54,52,48.57,44.35l.67-1.67a26.61,26.61,0,0,1,2.7-5.13h0A2.78,2.78,0,0,1,55.06,36a1,1,0,0,1,.93,1h0c.22,2.73-.28,8.39-.73,13.5C54.7,56.85,54,64.82,53.84,73.67c-.34,20.13,1.57,29.67,3.73,34.3,1.73,3.73,3.62,4.27,4.6,4.55a6.29,6.29,0,0,0,5.75-1,6.93,6.93,0,0,0,2.52-5,42.72,42.72,0,0,0,0-6.87,137.05,137.05,0,0,1,.06-15.56C71.91,63.7,79,40.49,82.42,32.59c4.43-10.11,7.69-12.48,9.91-12.73a6.87,6.87,0,0,1,2.76.32,2.58,2.58,0,0,1,1.12.84c.22.41,1.11,3.1-2.86,16.54-.68,2.31-1.62,5.16-2.71,8.47-4.41,13.35-10.45,31.63-9.26,44.11.5,5.15,1.24,12.94,7.4,13.09h.16c5.51,0,7.55-6.49,9-16.94a99.45,99.45,0,0,1,20.87-46.54c11.94-14.67,14.49-13.08,16.24-12,.8.75,2.61,5.64-4.06,14.23-.9,1.15-1.82,2.3-2.73,3.44C119.82,56.05,110.2,68.09,112.43,90a37.17,37.17,0,0,0,3.06,11.43c5.7,12.74,17.59,19.94,25.07,22.44,15,5,30.88,1.49,43.69-9.6.31-.27.59-.55.89-.82.79-1,3-3.66,3.64-4.63l.34-.52c.31-.46.69-1,1.12-1.56.09-.14.21-.27.31-.4h0a6.87,6.87,0,0,1,1-1,6,6,0,0,1,.63-.5l.19-.14.37-.19.38-.2a7.52,7.52,0,0,1,3.35-.8,7.32,7.32,0,0,1,7.36,6.34,7.52,7.52,0,0,1,.09.83A7.29,7.29,0,0,1,203.6,112.86Z" transform="translate(-5.89 -5.91)"/></svg>