<svg id="arte" xmlns="http://www.w3.org/2000/svg" viewBox="0 0 776.45 208.19"><defs><style>.cls-1{fill:#fff;}</style></defs><title>LOOGOBB</title><path class="cls-1" d="M638.7,140.73v31.12h-5.83l-.74-1.7a10.55,10.55,0,0,1-6.9,2.47c-7,0-12-5.1-12-12.2s5-12.18,12-12.18a10.66,10.66,0,0,1,5.69,1.58v-9.09Zm-7.29,19.69a5.12,5.12,0,1,0-5.12,5.23A5,5,0,0,0,631.41,160.42Z" transform="translate(-8.55 -5.82)"/><path class="cls-1" d="M667,162.29h-17a4.45,4.45,0,0,0,4.67,4,4.58,4.58,0,0,0,4.13-2.15h7.84c-1.61,5.22-6.23,8.48-12,8.48a12,12,0,0,1-12.42-12.2c0-7,5.24-12.16,12.42-12.16,7.37,0,12.47,5.26,12.47,12A14.93,14.93,0,0,1,667,162.29Zm-16.84-4.36h9.24a4.58,4.58,0,0,0-4.71-3.52A4.42,4.42,0,0,0,650.19,157.93Z" transform="translate(-8.55 -5.82)"/><path class="cls-1" d="M670.76,140.73h7.88v31.12h-7.88Z" transform="translate(-8.55 -5.82)"/><path class="cls-1" d="M716.17,162.29h-17a4.45,4.45,0,0,0,4.67,4,4.58,4.58,0,0,0,4.13-2.15h7.84c-1.61,5.22-6.23,8.48-12,8.48a12,12,0,0,1-12.42-12.2c0-7,5.24-12.16,12.42-12.16,7.37,0,12.47,5.26,12.47,12A14.93,14.93,0,0,1,716.17,162.29Zm-16.84-4.36h9.24a4.58,4.58,0,0,0-4.71-3.52A4.42,4.42,0,0,0,699.33,157.93Z" transform="translate(-8.55 -5.82)"/><path class="cls-1" d="M718.63,164.35h7.58a2.37,2.37,0,0,0,2.66,2.45c1.15,0,2.24-.59,2.24-1.77s-1.73-1.7-3.92-2.06c-3.55-.58-8.25-1.65-8.25-7.19,0-4.58,3.91-7.54,9.77-7.54s9.59,3.09,9.68,7.73H731c0-1.47-1-2.14-2.4-2.14s-2.12.62-2.12,1.68c0,1.3,1.75,1.6,3.93,2,3.61.64,8.41,1.39,8.41,7.19,0,4.78-4,7.9-10.11,7.9C722.49,172.59,718.7,169.3,718.63,164.35Z" transform="translate(-8.55 -5.82)"/><path class="cls-1" d="M757.71,165v6.9h-5.42c-5,0-8.13-3.09-8.13-8.17v-8.63H740v-1.84l10.24-10.91h1.62V149h5.74v6.06H752v7.28a2.42,2.42,0,0,0,2.65,2.62Z" transform="translate(-8.55 -5.82)"/><path class="cls-1" d="M784.57,162.29h-17a4.45,4.45,0,0,0,4.67,4,4.58,4.58,0,0,0,4.13-2.15h7.84c-1.61,5.22-6.23,8.48-12,8.48a12,12,0,0,1-12.42-12.2c0-7,5.24-12.16,12.42-12.16,7.37,0,12.47,5.26,12.47,12A14.93,14.93,0,0,1,784.57,162.29Zm-16.84-4.36H777a4.59,4.59,0,0,0-4.71-3.52A4.42,4.42,0,0,0,767.73,157.93Z" transform="translate(-8.55 -5.82)"/><path class="cls-1" d="M307.06,78.49l-22.4,55.71H267.28L244.59,78.49h21l10.53,33,10.41-33Z" transform="translate(-8.55 -5.82)"/><path class="cls-1" d="M313.23,78.49h19.19V134.2H313.23Z" transform="translate(-8.55 -5.82)"/><path class="cls-1" d="M366,136c-15.18,0-24.41-8-24.59-20.08h18.47c0,4.07,2.84,6,6.48,6,2.81,0,5.47-1.43,5.47-4.32,0-3.21-4.22-4.12-9.57-5-8.64-1.4-20.09-4-20.09-17.52,0-11.16,9.51-18.38,23.79-18.38s23.38,7.55,23.6,18.84h-18c0-3.56-2.39-5.21-5.87-5.21-3.07,0-5.14,1.52-5.14,4.11,0,3.17,4.26,3.9,9.55,4.85,8.8,1.56,20.5,3.39,20.5,17.51,0,11.65-9.82,19.26-24.63,19.26Z" transform="translate(-8.55 -5.82)"/><path class="cls-1" d="M399.6,78.49h19.19V134.2H399.6Z" transform="translate(-8.55 -5.82)"/><path class="cls-1" d="M468.44,117.4v16.8h-13.2c-12.32,0-19.81-7.53-19.81-19.91v-21H425.24V88.79l25-26.59h3.94V78.49h14V93.27H454.62V111c0,4,2.41,6.41,6.46,6.41Z" transform="translate(-8.55 -5.82)"/><path class="cls-1" d="M539.18,106.35c0,17.35-12.18,29.73-29.21,29.73a26,26,0,0,1-13.58-3.7v21.94h-19V78.49h13.06l2.4,4.43A25.82,25.82,0,0,1,510,76.66C527,76.66,539.18,89,539.18,106.35Zm-19.31,0c0-7.33-5.28-12.76-12.47-12.76S494.93,99,494.93,106.35s5.28,12.74,12.47,12.74S519.87,113.66,519.87,106.35Z" transform="translate(-8.55 -5.82)"/><path class="cls-1" d="M547.28,110.29V78.49h19.19v31c0,5.88,3.16,9.33,8.29,9.33s8.22-3.51,8.22-9.33v-31h19.19v31.8c0,15.58-11,25.73-27.41,25.73S547.28,125.87,547.28,110.29Z" transform="translate(-8.55 -5.82)"/><path class="cls-1" d="M668.6,100.23v34H649.41V102.89c0-6.49-2.44-9.71-7.27-9.71-6,0-9.42,4.18-9.42,11.27V134.2H613.53V78.49H627l2.64,5.74a23.14,23.14,0,0,1,17.53-7.39C660.1,76.84,668.6,86,668.6,100.23Z" transform="translate(-8.55 -5.82)"/><path class="cls-1" d="M717.24,117.4v16.8H704c-12.32,0-19.81-7.53-19.81-19.91v-21H674V88.79L699,62.2h3.94V78.49h14V93.27H703.42V111c0,4,2.41,6.41,6.46,6.41Z" transform="translate(-8.55 -5.82)"/><path class="cls-1" d="M785,78.44v55.7H770.16l-1.64-3.94A26.35,26.35,0,0,1,751.71,136c-17,0-29.21-12.42-29.21-29.73s12.17-29.54,29.21-29.54a26.46,26.46,0,0,1,17,6l2-4.31Zm-18.26,27.89a12.24,12.24,0,0,0-12.47-12.66c-7.23,0-12.46,5.43-12.46,12.66s5.28,12.7,12.46,12.7S766.74,113.6,766.74,106.33Z" transform="translate(-8.55 -5.82)"/><circle class="cls-1" cx="314.01" cy="54.7" r="9.94"/><circle class="cls-1" cx="399.57" cy="54.7" r="9.94"/><path class="cls-1" d="M157.7,58.71a23.5,23.5,0,1,0,23.54,23.54A23.57,23.57,0,0,0,157.7,58.71Zm0,37.38a13.84,13.84,0,1,1,13.83-13.84A13.85,13.85,0,0,1,157.7,96.09Z" transform="translate(-8.55 -5.82)"/><path class="cls-1" d="M157,51.28a23,23,0,0,1,20.7,7.29,5.12,5.12,0,1,0,7.62-6.84C174.74,40,161,40.39,155.6,41.13A5.12,5.12,0,0,0,157,51.28Z" transform="translate(-8.55 -5.82)"/><path class="cls-1" d="M158.33,26.66c3.84.84,11.5,3.42,19.62,11.3a5.13,5.13,0,0,0,3.57,1.44,4.07,4.07,0,0,0,.49,0,5.06,5.06,0,0,0,3.19-1.51,4.93,4.93,0,0,0,1-1.51,5.1,5.1,0,0,0-1.1-5.73c-10-9.64-19.67-12.88-24.57-14a4.92,4.92,0,0,0-1.83,0,5.09,5.09,0,0,0-4.17,3.64c0,.11-.08.21-.1.32A5.12,5.12,0,0,0,158.33,26.66Z" transform="translate(-8.55 -5.82)"/><path class="cls-1" d="M185.22,72a45.54,45.54,0,0,1,2,8.73,5.12,5.12,0,0,0,5.07,4.43,5.78,5.78,0,0,0,.71-.05,6,6,0,0,0,.84-.2,5.18,5.18,0,0,0,1.19-.56,5.05,5.05,0,0,0,1.67-1.74,5.17,5.17,0,0,0,.71-2.29,4.74,4.74,0,0,0,0-1,55.6,55.6,0,0,0-2.5-10.82A5.13,5.13,0,0,0,185.22,72Z" transform="translate(-8.55 -5.82)"/><path class="cls-1" d="M199.15,61.86a5.09,5.09,0,0,0,.27,3.91,52,52,0,0,1,4,12.06c.31,1.45.55,2.79.73,4,0,.08,0,.17,0,.24a5.1,5.1,0,0,0,4.54,4.33,4.36,4.36,0,0,0,.52,0,6.3,6.3,0,0,0,.75,0A5.1,5.1,0,0,0,212.86,85a4.74,4.74,0,0,0,.65-.77,5.11,5.11,0,0,0,.86-3.64c-.13-.84-.29-1.76-.46-2.72a64,64,0,0,0-5.31-16.63,5.1,5.1,0,0,0-5.53-2.74,4.84,4.84,0,0,0-1.34.42A5.13,5.13,0,0,0,199.15,61.86Z" transform="translate(-8.55 -5.82)"/><path class="cls-1" d="M195.25,51.77a4.84,4.84,0,0,0,3-1,4.9,4.9,0,1,0-3,1Z" transform="translate(-8.55 -5.82)"/><path class="cls-1" d="M215.81,104.07c-.16-.51-.35-1-.4-1.17a10.07,10.07,0,0,0-1.68-3.05,34.42,34.42,0,0,0-4.6-4.43,23.79,23.79,0,0,0-8.11-4h0l-.62-.14c-.4-.07-.8-.14-1.18-.17h-.06a10.42,10.42,0,0,0-2.58.11,11,11,0,0,0-4.06,1.6,15.7,15.7,0,0,0-3.89,3.57c-.2.26-.38.5-.53.72-1.13,1.61-2.77,3.67-4.1,5.3l-1.31,1.59c-.79.81-1.61,1.6-2.48,2.35-4.74,4.1-17.5,13-33.75,7.63-.14,0-11.28-3.91-17.4-14a26.53,26.53,0,0,1-3.78-11.23c-1.8-17.71,5.38-26.7,13.69-37.11.94-1.18,1.89-2.36,2.81-3.55,4.05-5.2,5.94-9.76,6.67-13.53a19.13,19.13,0,0,0,.13-7,14.75,14.75,0,0,0-2-5.18l-.12-.18c-.06-.09-.1-.17-.17-.26l-.18-.24c-.13-.18-.26-.35-.4-.52l-.2-.24c-.12-.14-.24-.29-.37-.42l0,0a12.06,12.06,0,0,0-2.2-1.83,9,9,0,0,1-2-3.67c-.3-1.11-.43-2.17-.68-3.13a5.2,5.2,0,0,0-3.54-3.28A104,104,0,0,0,8.55,109.92c0,.28,0,2.32.11,4.48A103.33,103.33,0,0,0,21,159.2c.19.36,3.13,5.43,3.31,5.71a104.06,104.06,0,0,0,192.42-54.4,2.11,2.11,0,0,0,0-.25A19.84,19.84,0,0,0,215.81,104.07Zm-110-63.7c3.69-12.5,4.51-19.65,2.1-24.18,1.56-.08,3.12-.12,4.7-.12a94.2,94.2,0,0,1,17.89,1.73c-4.84,2.1-10.19,7.07-17,15.4a107.28,107.28,0,0,0-10.25,15.07C104.32,45.26,105.18,42.63,105.84,40.37ZM78.55,22.51c-1.07,2-2,4-2.86,5.88A171,171,0,0,0,68,52.73c0-.5.09-1,.13-1.48,1.06-12,1.69-19.27-2.33-22.6A93,93,0,0,1,78.55,22.51ZM37.75,53.44c-1.82,7.89-3,18.82-2.25,35.56.12,2.62.47,6,.89,9.69a66.84,66.84,0,0,0-2.22-7.94c-1.45-3.89-7.1-6.91-10.68-6.61-.38,0-.74.1-1.11.14A93.67,93.67,0,0,1,37.75,53.44ZM35,157.93c8.34-8.34,30.57-23.76,72.43-9.69,2.56.86,5,1.63,7.5,2.34-22.23,6-38.12,9.57-50.55,10.71-8.7.8-15.72.43-22-1A51.92,51.92,0,0,1,35,157.93Zm77.68,45.83a93.31,93.31,0,0,1-38.89-8.47c2.35-.83,5.06-1.75,8.08-2.72a238.07,238.07,0,0,1,38-9.1c15.87-2.25,28.32-3.24,45.65,2.92l1,.34A93.36,93.36,0,0,1,112.64,203.76Zm63-24.38c-23.08-9.82-38.45-8.72-57.27-6-25.94,3.67-50.89,13.2-56.54,15.45A94.44,94.44,0,0,1,41,170.44,69.44,69.44,0,0,0,56,172c13.25,0,29.19-3.05,50.94-8.69,4.15-1.08,8.49-2.24,13.09-3.51a99.63,99.63,0,0,1,25.49-3.68c2.14.12,4.2.15,6.21.14a80.27,80.27,0,0,1,35.59,10.41h0A102.32,102.32,0,0,1,175.68,179.38Zm17.4-21.19a85.66,85.66,0,0,0-14-6.62,63.52,63.52,0,0,0,23.68-15.43A93.29,93.29,0,0,1,193.08,158.19Zm13.18-45.42v0c-4,9.24-18.19,33.66-56.69,33.12l-1.68,0c-10.55-.35-22.85-2.51-37.23-7.34C64,122.86,38.42,140,28,150.37a93.37,93.37,0,0,1-9.11-37.79s-.06-1,0-1.64c.17-6.73.8-11.41,2.16-15,.06-.15.12-.29.19-.43h0l0-.06,0,0a2.28,2.28,0,0,1,1.86-1.15,2.2,2.2,0,0,1,1.31.19s.2.16.24.21a1,1,0,0,1,.14.23,1.87,1.87,0,0,1,.07.22.14.14,0,0,1,0,.06c1,3.11,2,7.89,3,12.55.28,1.34.54,2.57.79,3.73,1.83,8.49,3,12.19,5.28,14.21,1.48,1.3,3.82,3.37,6.79,3.37a6.5,6.5,0,0,0,1.43-.15c3.5-.79,4.9-4.05,5.43-5.27,1.09-2.53,1.05-6.7.3-14.35-.24-2.48-.56-5.32-.94-8.59-.55-4.71-1.07-9.16-1.21-12.17-1.24-26.8,2.47-36.65,5.5-44.26l.67-1.67a26.92,26.92,0,0,1,2.7-5.13h0a2.78,2.78,0,0,1,3.12-1.57,1,1,0,0,1,.93,1h0c.22,2.72-.28,8.39-.73,13.49-.56,6.41-1.27,14.38-1.42,23.24-.34,20.12,1.57,29.67,3.72,34.29,1.74,3.73,3.62,4.27,4.61,4.55a6.29,6.29,0,0,0,5.75-1.05,6.93,6.93,0,0,0,2.52-5,42.72,42.72,0,0,0,0-6.87A134.73,134.73,0,0,1,73.2,84c1.37-20.38,8.41-43.59,11.88-51.48C89.51,22.4,92.77,20,95,19.78a6.66,6.66,0,0,1,2.75.31,2.55,2.55,0,0,1,1.13.84c.22.41,1.11,3.1-2.86,16.55-.68,2.3-1.62,5.16-2.71,8.46C88.89,59.29,82.84,77.58,84,90.05c.49,5.15,1.24,13,7.4,13.09h.16c5.51,0,7.55-6.49,9.05-16.94a99.43,99.43,0,0,1,20.87-46.53C133.46,25,136,26.59,137.76,27.66c.8.75,2.61,5.65-4.06,14.23L131,45.34C122.48,56,112.86,68,115.09,89.88a36.82,36.82,0,0,0,3.06,11.43c5.7,12.74,17.59,20,25.07,22.44,15,5,30.88,1.49,43.69-9.6.31-.26.59-.55.89-.82.78-1,3-3.66,3.64-4.63l.34-.52c.31-.45.69-1,1.12-1.56.09-.14.2-.26.31-.4h0a7.39,7.39,0,0,1,1-1,7.14,7.14,0,0,1,.62-.5l.2-.14.37-.19.38-.2a7.66,7.66,0,0,1,3.35-.8,7.32,7.32,0,0,1,7.36,6.34,7.77,7.77,0,0,1,.08.83A7.13,7.13,0,0,1,206.26,112.77Z" transform="translate(-8.55 -5.82)"/><path class="cls-1" d="M99,21.28" transform="translate(-8.55 -5.82)"/></svg>